<?xml version="1.0" encoding="UTF-8" standalone="no" ?>
<!DOCTYPE svg PUBLIC "-//W3C//DTD SVG 1.1//EN" "http://www.w3.org/Graphics/SVG/1.1/DTD/svg11.dtd">
<svg xmlns="http://www.w3.org/2000/svg" xmlns:xlink="http://www.w3.org/1999/xlink" version="1.1" width="22" height="22" viewBox="0 0 22 22" xml:space="preserve">
<desc>Created with Fabric.js 4.6.0</desc>
<defs>
</defs>
<g transform="matrix(1.07 0 0 1.07 11 11)" id="2SNqfQYCv739asLLx_KgC"  >
<path style="stroke: rgb(83,85,182); stroke-width: 0; stroke-dasharray: none; stroke-linecap: butt; stroke-dashoffset: 0; stroke-linejoin: miter; stroke-miterlimit: 4; fill: rgb(54,152,251); fill-rule: nonzero; opacity: 1;" vector-effect="non-scaling-stroke"  transform=" translate(0, 0)" d="M 0 -10.31215 C 5.69231 -10.31215 10.31215 -5.692310000000001 10.31215 0 C 10.31215 5.69231 5.692310000000001 10.31215 0 10.31215 C -5.69231 10.31215 -10.31215 5.692310000000001 -10.31215 0 C -10.31215 -5.69231 -5.692310000000001 -10.31215 0 -10.31215 z" stroke-linecap="round" />
</g>
<g transform="matrix(1.75 0 0 1.75 11 11)" id="UerVRs_Y0Mzui_Ow7fPTv"  >
<path style="stroke: rgb(136,233,71); stroke-width: 0; stroke-dasharray: none; stroke-linecap: butt; stroke-dashoffset: 0; stroke-linejoin: miter; stroke-miterlimit: 4; fill: rgb(255,255,255); fill-rule: nonzero; opacity: 1;" vector-effect="non-scaling-stroke"  transform=" translate(0, 0)" d="M 0 -3.62318 C 2 -3.62318 3.62318 -1.9999900000000002 3.62318 0 C 3.62318 2 1.9999900000000002 3.62318 0 3.62318 C -2 3.62318 -3.62318 1.9999900000000002 -3.62318 0 C -3.62318 -2 -1.9999900000000002 -3.62318 0 -3.62318 z" stroke-linecap="round" />
</g>
</svg>